<svg xmlns="http://www.w3.org/2000/svg" xmlns:xlink="http://www.w3.org/1999/xlink" width="500" zoomAndPan="magnify" viewBox="0 0 375 374.999991" height="500" preserveAspectRatio="xMidYMid meet" version="1.2"><defs><clipPath id="618ee88179"><path d="M 78 70 L 297 70 L 297 305 L 78 305 Z M 78 70 "/></clipPath><clipPath id="cf59c609a0"><path d="M 51.695312 246.757812 L 222.449219 43.449219 L 323.527344 128.34375 L 152.773438 331.652344 Z M 51.695312 246.757812 "/></clipPath><clipPath id="9e9d88f94b"><path d="M 51.53125 246.621094 L 222.28125 43.3125 L 323.363281 128.207031 L 152.609375 331.515625 Z M 51.53125 246.621094 "/></clipPath></defs><g id="d19ccd949c"><g clip-rule="nonzero" clip-path="url(#618ee88179)"><g clip-rule="nonzero" clip-path="url(#cf59c609a0)"><g clip-rule="nonzero" clip-path="url(#9e9d88f94b)"><path style=" stroke:none;fill-rule:nonzero;fill:#ff6d4d;fill-opacity:1;" d="M 272.539062 86.097656 C 300.449219 109.542969 304 151.261719 280.464844 179.28125 C 274.476562 186.414062 267.3125 191.964844 259.492188 195.898438 C 260.675781 185.832031 259.757812 175.609375 256.796875 165.929688 C 258.003906 164.8125 259.160156 163.601562 260.25 162.304688 C 274.371094 145.488281 272.242188 120.460938 255.492188 106.394531 C 240.464844 93.773438 218.785156 94.273438 204.285156 106.644531 L 183.898438 89.523438 C 207.96875 66.019531 246.332031 64.089844 272.539062 86.097656 Z M 170.34375 268.496094 C 155.84375 280.871094 134.160156 281.371094 119.132812 268.75 C 102.386719 254.683594 100.257812 229.652344 114.378906 212.839844 C 115.46875 211.542969 116.621094 210.335938 117.828125 209.210938 C 114.867188 199.527344 113.953125 189.308594 115.132812 179.242188 C 107.316406 183.179688 100.152344 188.730469 94.164062 195.859375 C 70.628906 223.882812 74.179688 265.601562 102.089844 289.042969 C 128.296875 311.054688 166.664062 309.128906 190.730469 285.617188 Z M 199.601562 111.367188 L 191.082031 121.511719 C 204.875 122.242188 218.550781 127.28125 229.925781 136.835938 C 257.835938 160.277344 261.386719 201.996094 237.855469 230.019531 L 195.242188 280.753906 L 175.027344 263.773438 L 183.546875 253.628906 C 169.746094 252.90625 156.082031 247.863281 144.703125 238.308594 C 116.789062 214.867188 113.238281 173.144531 136.773438 145.125 L 179.386719 94.386719 Z M 212.882812 157.128906 C 196.132812 143.0625 171.113281 145.289062 156.988281 162.101562 C 142.867188 178.917969 144.996094 203.945312 161.746094 218.011719 C 178.496094 232.082031 203.515625 229.851562 217.636719 213.039062 C 231.753906 196.230469 229.628906 171.195312 212.882812 157.128906 Z M 212.882812 157.128906 "/></g></g></g></g></svg>